<svg width="120" height="120" viewBox="0 0 120 120" fill="none" xmlns="http://www.w3.org/2000/svg">
  <!-- 원형 배경 -->
  <circle cx="60" cy="60" r="50" fill="#FFEBEE"/>
  
  <!-- 위치 핀 -->
  <path d="M60 25 C45 25 35 38 35 50 C35 68 60 90 60 90 C60 90 85 68 85 50 C85 38 75 25 60 25 Z" fill="#EF5350"/>
  <circle cx="60" cy="48" r="12" fill="#FFEBEE"/>
  
  <!-- X 표시 -->
  <circle cx="85" cy="35" r="15" fill="#D32F2F"/>
  <path d="M79 29 L91 41 M91 29 L79 41" stroke="white" stroke-width="3" stroke-linecap="round"/>
  
  <!-- 물결 (신호 없음) -->
  <path d="M30 75 Q35 70 40 75 Q45 80 50 75" stroke="#BDBDBD" stroke-width="2" fill="none" stroke-dasharray="3 2"/>
  <path d="M70 75 Q75 70 80 75 Q85 80 90 75" stroke="#BDBDBD" stroke-width="2" fill="none" stroke-dasharray="3 2"/>
</svg>
