<svg width="120" height="120" viewBox="0 0 120 120" fill="none" xmlns="http://www.w3.org/2000/svg">
  <!-- 원형 배경 -->
  <circle cx="60" cy="60" r="50" fill="#FFEBEE"/>
  
  <!-- 서버/클라우드 -->
  <path d="M35 65 C25 65 20 55 25 48 C25 38 35 32 48 35 C52 28 62 25 72 28 C82 30 88 40 88 50 C95 52 98 60 95 68 C92 75 85 78 78 75 L42 75 C35 78 28 72 35 65 Z" fill="#BDBDBD"/>
  
  <!-- X 표시 -->
  <circle cx="85" cy="35" r="15" fill="#D32F2F"/>
  <path d="M79 29 L91 41 M91 29 L79 41" stroke="white" stroke-width="3" stroke-linecap="round"/>
  
  <!-- 번개 (오류) -->
  <path d="M55 50 L62 58 L58 58 L65 70 L58 62 L62 62 L55 50" fill="#EF5350"/>
</svg>
