<svg width="100" height="80" viewBox="0 0 100 80" fill="none" xmlns="http://www.w3.org/2000/svg">
  <!-- 꼬리 -->
  <ellipse cx="12" cy="38" rx="10" ry="8" fill="#FF9800"/>
  
  <!-- 뒷다리 -->
  <rect x="18" y="52" width="10" height="16" rx="5" fill="#FF9800"/>
  <rect x="32" y="52" width="10" height="16" rx="5" fill="#FF9800"/>
  
  <!-- 앞다리 -->
  <rect x="58" y="52" width="10" height="16" rx="5" fill="#FF9800"/>
  <rect x="72" y="52" width="10" height="16" rx="5" fill="#FF9800"/>
  
  <!-- 몸통 -->
  <ellipse cx="50" cy="42" rx="32" ry="20" fill="#FF9800"/>
  
  <!-- 몸통 복실복실 털 -->
  <circle cx="25" cy="38" r="6" fill="#FFB74D"/>
  <circle cx="40" cy="32" r="5" fill="#FFB74D"/>
  <circle cx="55" cy="32" r="5" fill="#FFB74D"/>
  <circle cx="70" cy="38" r="5" fill="#FFB74D"/>
  <circle cx="50" cy="52" r="5" fill="#FFB74D"/>
  
  <!-- 머리 -->
  <circle cx="78" cy="32" r="22" fill="#FF9800"/>
  
  <!-- 머리 복실복실 털 -->
  <circle cx="65" cy="18" r="5" fill="#FFB74D"/>
  <circle cx="78" cy="12" r="6" fill="#FFB74D"/>
  <circle cx="90" cy="18" r="5" fill="#FFB74D"/>
  
  <!-- 왼쪽 귀 (늘어진 강아지 귀) -->
  <ellipse cx="58" cy="28" rx="8" ry="14" fill="#E65100"/>
  
  <!-- 오른쪽 귀 -->
  <ellipse cx="98" cy="28" rx="8" ry="14" fill="#E65100"/>
  
  <!-- 주둥이 -->
  <ellipse cx="90" cy="38" rx="10" ry="8" fill="#FFE0B2"/>
  
  <!-- 왼쪽 눈 -->
  <circle cx="70" cy="30" r="5" fill="#212121"/>
  <circle cx="71" cy="28" r="2" fill="white"/>
  
  <!-- 오른쪽 눈 -->
  <circle cx="86" cy="30" r="5" fill="#212121"/>
  <circle cx="87" cy="28" r="2" fill="white"/>
  
  <!-- 코 -->
  <ellipse cx="92" cy="36" rx="4" ry="3" fill="#212121"/>
  <circle cx="91" cy="35" r="1.5" fill="white" opacity="0.5"/>
  
  <!-- 입 -->
  <path d="M88 42 Q92 46 96 42" stroke="#5D4037" stroke-width="1.5" fill="none" stroke-linecap="round"/>
  
  <!-- 볼터치 -->
  <ellipse cx="64" cy="38" rx="5" ry="3" fill="#FFCDD2" opacity="0.6"/>
  <ellipse cx="96" cy="42" rx="5" ry="3" fill="#FFCDD2" opacity="0.6"/>
</svg>
